<?xml version="1.0" encoding="UTF-8"?>
<svg width="303px" height="303px" viewBox="0 0 303 303" version="1.1" xmlns="http://www.w3.org/2000/svg" xmlns:xlink="http://www.w3.org/1999/xlink">
    <title>mariadb</title>
    <g id="Welcome" stroke="none" stroke-width="1" fill="none" fill-rule="evenodd">
        <g id="Tablet-Portrait" transform="translate(-290.000000, -75.000000)" fill="#003545" fill-rule="nonzero">
            <g id="mariadb" transform="translate(295.000000, 131.000000)">
                <path d="M291.94,0.953966104 C291.14315,0.297418851 290.131506,-0.0409833043 289.1,0.0039661038 C286.27,0.0039661038 282.61,1.9239661 280.64,2.9539661 L279.86,3.3539661 C276.555485,4.95369699 272.958098,5.85899985 269.29,6.0139661 C265.53,6.1339661 262.29,6.3539661 258.07,6.7939661 C233.07,9.3639661 221.92,28.5239661 211.18,47.0539661 C205.33,57.1339661 199.29,67.6039661 191.01,75.6039661 C189.296849,77.2651637 187.47625,78.8118379 185.56,80.2339661 C176.99,86.6039661 166.23,91.1539661 157.86,94.3739661 C149.8,97.4539661 141,100.223966 132.5,102.903966 C124.71,105.353966 117.36,107.673966 110.6,110.183966 C107.55,111.313966 104.96,112.183966 102.67,112.943966 C96.51,114.943966 92.07,116.473966 85.58,120.943966 C83.05,122.673966 80.51,124.543966 78.79,125.943966 C73.6382647,130.05452 69.078569,134.856502 65.24,140.213966 C61.9390716,145.155927 58.1245037,149.734749 53.86,153.873966 C52.49,155.213966 50.06,155.873966 46.42,155.873966 C42.16,155.873966 36.99,154.993966 31.52,154.063966 C25.88,153.063966 20.05,152.113966 15.05,152.113966 C10.99,152.113966 7.88,152.773966 5.56,154.113966 C5.56,154.113966 1.65,156.393966 0,159.343966 L1.62,160.073966 C4.13217845,161.435967 6.45805893,163.116517 8.54,165.073966 C10.7121833,167.080267 13.131767,168.80086 15.74,170.193966 C16.5725926,170.499244 17.3297343,170.980131 17.96,171.603966 C17.28,172.603966 16.28,173.893966 15.23,175.273966 C9.46,182.823966 6.09,187.593966 8.02,190.193966 C8.94502522,190.674462 9.9782012,190.908648 11.02,190.873966 C23.6,190.873966 30.36,187.603966 38.91,183.463966 C41.39,182.263966 43.91,181.033966 46.91,179.763966 C51.91,177.593966 57.29,174.133966 63,170.473966 C70.47,165.603966 78.28,160.603966 85.86,158.193966 C92.0894726,156.294374 98.5782772,155.383309 105.09,155.493966 C113.09,155.493966 121.51,156.563966 129.63,157.603966 C135.68,158.383966 141.95,159.183966 148.1,159.553966 C150.49,159.693966 152.7,159.763966 154.85,159.763966 C157.726091,159.772393 160.600457,159.622165 163.46,159.313966 L164.15,159.073966 C168.46,156.423966 170.48,150.733966 172.44,145.233966 C173.7,141.693966 174.76,138.513966 176.44,136.493966 C176.539085,136.395347 176.646113,136.305042 176.76,136.223966 C176.922122,136.133774 177.124982,136.166894 177.25,136.303966 C177.25,136.303966 177.25,136.353966 177.25,136.463966 C176.25,157.973966 167.59,171.633966 158.83,183.773966 L152.98,190.043966 C152.98,190.043966 161.17,190.043966 165.83,188.243966 C182.83,183.163966 195.66,171.963966 205,154.103966 C207.303321,149.519214 209.362857,144.815995 211.17,140.013966 C211.33,139.613966 212.8,138.873966 212.66,140.943966 C212.61,141.553966 212.57,142.233966 212.52,142.943966 L212.52,142.943966 C212.52,143.363966 212.52,143.793966 212.44,144.223966 C212.2,147.223966 211.49,153.563966 211.49,153.563966 L216.74,150.753966 C229.4,142.753966 239.16,126.613966 246.56,101.503966 C249.64,91.0439661 251.9,80.6539661 253.89,71.5039661 C256.27,60.5039661 258.32,51.0739661 260.67,47.4139661 C264.36,41.6739661 269.99,37.7939661 275.44,34.0239661 C276.18,33.5139661 276.93,33.0239661 277.66,32.4839661 C284.51,27.6739661 291.32,22.1239661 292.82,11.7739661 L292.82,11.5439661 C293.91,3.8239661 292.99,1.8539661 291.94,0.953966104 Z" id="Path"></path>
            </g>
        </g>
    </g>
</svg>